<svg xmlns="http://www.w3.org/2000/svg" viewBox="0 0 760 500" role="img" aria-label="Saved walk in the snow visual evidence">
<defs><linearGradient id="bg" x1="0" y1="0" x2="0" y2="1"><stop offset="0" stop-color="#dce5e8"/><stop offset="1" stop-color="#f7fafb"/></linearGradient></defs>
<rect width="760" height="500" fill="url(#bg)"/>
<g stroke="#50606a" stroke-width="18" opacity=".72"><line x1="85" y1="30" x2="70" y2="410"/><line x1="145" y1="20" x2="120" y2="405"/><line x1="620" y1="20" x2="650" y2="410"/><line x1="685" y1="30" x2="705" y2="410"/></g>
<path d="M0 340 Q160 300 320 335 T760 330 V500 H0Z" fill="#eef4f5"/>
<g><circle cx="315" cy="155" r="25" fill="#2e3339"/><rect x="285" y="180" width="65" height="155" rx="20" fill="#313941"/><rect x="292" y="330" width="22" height="90" fill="#2b3138"/><rect x="330" y="330" width="22" height="90" fill="#2b3138"/></g>
<g><ellipse cx="485" cy="345" rx="75" ry="42" fill="#c9b28c"/><circle cx="535" cy="315" r="32" fill="#c9b28c"/><rect x="452" y="375" width="15" height="55" fill="#8d775b"/><rect x="500" y="375" width="15" height="55" fill="#8d775b"/><path d="M555 315 q30 10 20 30" fill="none" stroke="#8d775b" stroke-width="8"/></g>
<g fill="none" stroke="#0aa9cf" stroke-width="3"><rect x="265" y="122" width="115" height="305"/><rect x="275" y="116" width="92" height="80"/><rect x="410" y="275" width="170" height="160"/><rect x="500" y="280" width="90" height="80"/></g>
<g font-family="Arial,sans-serif" font-size="13" font-weight="700"><g fill="#07384f"><rect x="265" y="106" width="76" height="20" rx="3"/><text x="271" y="121" fill="white">#7 man</text></g><g fill="#07384f"><rect x="410" y="259" width="75" height="20" rx="3"/><text x="416" y="274" fill="white">#0 dog</text></g><g fill="#07384f"><rect x="502" y="264" width="76" height="20" rx="3"/><text x="508" y="279" fill="white">#13 tail</text></g></g>
</svg>